<svg width="512" height="512" viewBox="0 0 512 512" fill="none" xmlns="http://www.w3.org/2000/svg">
<rect width="512" height="512" fill="#F9F5EC"/>
<g clip-path="url(#clip0_17_104)">
<path d="M344.964 92.9747V101.736C338.827 103.91 332.277 108.216 325.316 114.654C318.328 121.092 311.008 131.516 303.356 145.927L249.392 249.081L266.051 210.902L334.323 381.716C337.007 388.751 339.876 394.421 342.932 398.728C346.014 403.034 350.039 406.722 355.008 409.791V419C348.312 418.403 340.846 418.02 332.609 417.849C324.399 417.679 316.946 417.593 310.251 417.593C306.212 417.593 301.323 417.679 295.584 417.849C289.845 418.02 282.578 418.403 273.783 419V409.791C281.621 409.194 286.364 407.425 288.011 404.483C289.632 401.584 288.915 396.447 285.859 389.071L244.251 280.865C241.567 273.787 239.176 268.501 237.077 265.005C234.951 261.466 232.839 258.993 230.74 257.586C228.641 256.222 225.864 255.391 222.41 255.092V245.435C230.833 245.094 238.352 241.406 244.968 234.372C251.557 227.294 258.771 216.551 266.609 202.14L283.548 169.461C290.828 155.647 295.079 143.752 296.301 133.776C297.55 123.799 296.315 116.04 292.595 110.497C288.848 104.955 283.149 102.034 275.497 101.736V92.9747C282.591 93.3157 289.34 93.6355 295.743 93.9339C302.147 94.2324 309.56 94.3816 317.982 94.3816C329.089 94.3816 338.083 93.9126 344.964 92.9747ZM245.685 92.9747V102.184C239.548 102.525 234.898 103.676 231.736 105.637C228.601 107.641 226.555 111.329 225.598 116.701C224.642 122.073 224.164 130.45 224.164 141.834V370.205C224.164 381.247 224.682 389.54 225.718 395.082C226.781 400.582 228.84 404.249 231.895 406.082C234.951 407.958 239.548 409.194 245.685 409.791V419C240.504 418.403 233.994 418.02 226.156 417.849C218.318 417.679 210.374 417.593 202.323 417.593C193.156 417.593 184.508 417.679 176.377 417.849C168.247 418.02 161.79 418.403 157.008 419V409.791C163.119 409.194 167.702 407.958 170.758 406.082C173.84 404.249 175.899 400.582 176.935 395.082C177.998 389.54 178.529 381.247 178.529 370.205V141.834C178.529 130.45 177.998 122.073 176.935 116.701C175.899 111.329 173.8 107.641 170.638 105.637C167.476 103.676 162.933 102.525 157.008 102.184V92.9747C161.79 93.3157 168.247 93.6355 176.377 93.9339C184.508 94.2324 193.156 94.3816 202.323 94.3816C210.374 94.3816 218.318 94.2324 226.156 93.9339C233.994 93.6355 240.504 93.3157 245.685 92.9747Z" fill="black"/>
</g>
<defs>
<clipPath id="clip0_17_104">
<rect width="198" height="326" fill="white" transform="translate(157 93)"/>
</clipPath>
</defs>
</svg>
