<svg width="512" height="512" viewBox="0 0 512 512" fill="none" xmlns="http://www.w3.org/2000/svg">
<rect width="512" height="512" rx="80" fill="#F9F5EC"/>
<g clip-path="url(#clip0_17_94)">
<g clip-path="url(#clip1_17_94)">
<path d="M352.964 92.9746V101.736C346.827 103.91 340.277 108.216 333.316 114.654C326.328 121.092 319.008 131.516 311.356 145.927L257.392 249.081L274.051 210.901L342.323 381.716C345.007 388.751 347.876 394.421 350.932 398.727C354.014 403.034 358.039 406.721 363.008 409.791V419C356.312 418.403 348.846 418.02 340.609 417.849C332.399 417.679 324.946 417.593 318.25 417.593C314.212 417.593 309.323 417.679 303.584 417.849C297.845 418.02 290.578 418.403 281.783 419V409.791C289.621 409.194 294.364 407.425 296.011 404.483C297.632 401.584 296.915 396.447 293.859 389.071L252.25 280.865C249.567 273.787 247.176 268.501 245.077 265.005C242.951 261.466 240.839 258.993 238.74 257.586C236.641 256.222 233.864 255.391 230.41 255.092V245.435C238.833 245.094 246.352 241.406 252.968 234.372C259.557 227.294 266.771 216.551 274.609 202.14L291.548 169.461C298.828 155.647 303.079 143.752 304.301 133.776C305.55 123.799 304.315 116.04 300.595 110.497C296.848 104.955 291.149 102.034 283.497 101.736V92.9746C290.591 93.3157 297.34 93.6354 303.743 93.9339C310.147 94.2323 317.56 94.3816 325.982 94.3816C337.089 94.3816 346.083 93.9126 352.964 92.9746ZM253.685 92.9746V102.184C247.548 102.525 242.898 103.676 239.736 105.637C236.601 107.641 234.555 111.329 233.598 116.701C232.642 122.073 232.164 130.45 232.164 141.834V370.205C232.164 381.247 232.682 389.54 233.718 395.082C234.781 400.582 236.84 404.249 239.895 406.082C242.951 407.958 247.548 409.194 253.685 409.791V419C248.504 418.403 241.994 418.02 234.156 417.849C226.318 417.679 218.374 417.593 210.323 417.593C201.156 417.593 192.508 417.679 184.377 417.849C176.247 418.02 169.79 418.403 165.008 419V409.791C171.119 409.194 175.702 407.958 178.758 406.082C181.84 404.249 183.899 400.582 184.935 395.082C185.998 389.54 186.529 381.247 186.529 370.205V141.834C186.529 130.45 185.998 122.073 184.935 116.701C183.899 111.329 181.8 107.641 178.638 105.637C175.476 103.676 170.933 102.525 165.008 102.184V92.9746C169.79 93.3157 176.247 93.6354 184.377 93.9339C192.508 94.2323 201.156 94.3816 210.323 94.3816C218.374 94.3816 226.318 94.2323 234.156 93.9339C241.994 93.6354 248.504 93.3157 253.685 92.9746Z" fill="black"/>
</g>
</g>
<defs>
<clipPath id="clip0_17_94">
<rect width="183" height="326" fill="white" transform="translate(165 93)"/>
</clipPath>
<clipPath id="clip1_17_94">
<rect width="198" height="326" fill="white" transform="translate(165 93)"/>
</clipPath>
</defs>
</svg>
